<?xml version="1.0" encoding="iso-8859-1"?>
<!-- Uploaded to: SVG Repo, www.svgrepo.com, Generator: SVG Repo Mixer Tools -->
<svg height="800px" width="800px" version="1.1" id="Layer_1" xmlns="http://www.w3.org/2000/svg" xmlns:xlink="http://www.w3.org/1999/xlink" 
	 viewBox="0 0 512 512" xml:space="preserve">
<path style="fill:#FFEE81;" d="M207.745,487.973H60.927V12.338H280.95l141.06,145.246v330.388H207.745z"/>
<path style="fill:#FFC944;" d="M280.95,12.338l141.06,145.246H280.95V12.338L280.95,12.338z"/>
<path d="M330.03,512c-20.344,0-40.8-0.014-49.23-0.053c-12.226-0.059-23.774-0.114-28.864-9.559
	c-4.95-9.188,0.849-18.089,6.457-26.698l25.866-38.871c0.005-0.008,0.01-0.016,0.015-0.025l4.028-6.078
	c12.508-18.878,38.533-58.157,46.052-69.308c3.307-4.909,5.896-8.504,8.572-11.236c4.542-4.643,9.573-6.76,14.936-6.283
	c9.269,0.825,14.775,8.931,20.101,16.77c3.829,5.637,2.363,13.31-3.274,17.139c-5.634,3.834-13.309,2.365-17.139-3.272
	c-0.4-0.589-0.78-1.145-1.142-1.666c-0.547,0.79-1.086,1.585-1.594,2.337c-7.466,11.071-34.43,51.769-45.944,69.145l-4.029,6.084
	c-0.004,0.005-0.008,0.011-0.012,0.018c0,0-0.001,0.001-0.003,0.004l-24.5,36.818c0.195,0.001,0.391,0.001,0.589,0.003
	c16.283,0.08,77.644,0.055,95.978,0.029c0.284-0.019,0.569-0.029,0.857-0.029h54.833c-4.161-6.296-17.342-26.118-31.877-47.953
	l-3.367,17.057c-1.319,6.684-7.809,11.04-14.493,9.715c-6.684-1.32-11.034-7.809-9.715-14.494l9.119-46.201
	c0.138-0.772,0.35-1.527,0.632-2.259c0,0,0.001-0.004,0.003-0.007l0.001-0.005c0.334-0.868,0.761-1.683,1.265-2.432
	c0.003-0.005,0.005-0.01,0.008-0.015c0.001-0.001,0.003-0.004,0.004-0.005c0.477-0.706,1.03-1.368,1.66-1.974
	c2.805-2.705,6.848-4.041,10.96-3.228l46.413,9.16c6.684,1.32,11.034,7.809,9.715,14.493c-1.319,6.684-7.81,11.03-14.493,9.717
	l-17.324-3.419c16.119,24.215,30.205,45.4,32.999,49.653c5.829,8.876,11.855,18.053,6.891,27.34
	c-5.004,9.359-16.168,9.447-27.988,9.539H378.59c-0.271,0.019-0.544,0.029-0.821,0.029C369.294,511.989,349.715,512,330.03,512z
	 M206.637,498.649H61.513c-6.815,0-12.338-5.523-12.338-12.338V12.338C49.175,5.523,54.698,0,61.513,0h217.399
	c0.469,0,0.925,0.021,1.383,0.069l0,0c0.012,0.001,0.029,0.005,0.041,0.004c0.014,0.001,0.027,0,0.041,0.005
	c0.012,0,0.027,0.003,0.04,0.004c0.003,0,0.005,0,0.008,0.001c0.559,0.064,1.11,0.167,1.652,0.308l0,0
	c0.014,0.004,0.027,0.007,0.038,0.01c0,0,0.001,0,0.003,0c2.019,0.528,3.91,1.567,5.468,3.079c0.001,0.001,0.003,0.003,0.005,0.004
	c0.007,0.008,0.014,0.015,0.022,0.022c0.004,0.004,0.008,0.008,0.012,0.012c0.004,0.005,0.01,0.011,0.015,0.015
	c0.007,0.007,0.012,0.014,0.019,0.019c0.003,0.003,0.005,0.005,0.008,0.008c0.018,0.019,0.037,0.037,0.055,0.055l143.501,143.499
	c0.008,0.008,0.016,0.016,0.025,0.025c0.003,0.003,0.005,0.007,0.008,0.01c0.005,0.005,0.011,0.011,0.016,0.016
	c0.003,0.003,0.005,0.005,0.008,0.01c0.007,0.007,0.014,0.014,0.021,0.021c0.001,0.001,0.001,0.003,0.003,0.004
	c0.008,0.008,0.016,0.016,0.025,0.025c0.001,0.003,0.004,0.005,0.007,0.007c0.007,0.007,0.012,0.014,0.019,0.021
	c0.001,0.001,0.004,0.004,0.005,0.005c1.492,1.541,2.524,3.404,3.057,5.396v0.003c0.003,0.01,0.005,0.019,0.008,0.029
	c0,0.004,0.001,0.007,0.003,0.011c0.001,0.007,0.003,0.015,0.005,0.022c0.003,0.01,0.005,0.019,0.007,0.029
	c0.001,0.004,0.001,0.007,0.003,0.011c0.001,0.008,0.004,0.015,0.005,0.023v0.004c0.114,0.441,0.202,0.887,0.266,1.341
	c0,0,0,0.004,0,0.005c0,0.007,0.001,0.012,0.003,0.018l0.001,0.021c0,0.003,0.001,0.008,0.001,0.012
	c0.08,0.584,0.118,1.172,0.114,1.764v193.659c0,6.815-5.523,12.338-12.338,12.338s-12.338-5.523-12.338-12.338V168.174H278.997
	c-6.815,0-12.338-5.523-12.338-12.338V24.676H73.851v449.297h132.788c6.815,0,12.338,5.523,12.338,12.338
	S213.452,498.649,206.637,498.649z M291.337,143.499h101.377L291.337,42.124L291.337,143.499L291.337,143.499z"/>
</svg>